<svg width="360" height="62" viewBox="0 0 360 62" fill="none" xmlns="http://www.w3.org/2000/svg">
<path fill-rule="evenodd" clip-rule="evenodd" d="M328 0L335.457 23.7339H360L340.456 38.3674L348.162 62L328 47.4044L307.838 62L315.544 38.3674L296 23.7339H320.543L328 0Z" fill="#FFCC00"/>
<path fill-rule="evenodd" clip-rule="evenodd" d="M254 0L261.457 23.7339H286L266.456 38.3674L274.162 62L254 47.4044L233.838 62L241.544 38.3674L222 23.7339H246.543L254 0Z" fill="#FFCC00"/>
<path fill-rule="evenodd" clip-rule="evenodd" d="M180 0L187.457 23.7339H212L192.456 38.3674L200.162 62L180 47.4044L159.838 62L167.544 38.3674L148 23.7339H172.543L180 0Z" fill="#FFCC00"/>
<path fill-rule="evenodd" clip-rule="evenodd" d="M106 0L113.457 23.7339H138L118.456 38.3674L126.162 62L106 47.4044L85.8382 62L93.5444 38.3674L74 23.7339H98.5429L106 0Z" fill="#FFCC00"/>
<path fill-rule="evenodd" clip-rule="evenodd" d="M32 0L39.4571 23.7339H64L44.4556 38.3674L52.1618 62L32 47.4044L11.8382 62L19.5444 38.3674L0 23.7339H24.5429L32 0Z" fill="#FFCC00"/>
</svg>
